<svg id="Layer_1" data-name="Layer 1" xmlns="http://www.w3.org/2000/svg" viewBox="0 0 60 60"><defs><style>.cls-1{fill:#fddd5a;}.cls-2{fill:#fca12e;}.cls-3{fill:#f7f7f1;}.cls-4{fill:#fcb23a;}.cls-5{fill:#eeedde;}.cls-6{fill:#8eae42;}</style></defs><path class="cls-1" d="M90.5,87.28H31.08V63c.78.53.7,1.44.93,2.2,2.29,7.53,6.58,13.42,13.6,17.29A28.36,28.36,0,0,0,83.72,72.17c2.64-4.39,3.58-9.13,4.2-14l2.51-.08Q90.46,72.68,90.5,87.28Z" transform="translate(-31.05 -27.31)"/><path class="cls-2" d="M31.08,41.72V27.86c19,0,38.05,0,57.08,0,1.77,0,2.47.33,2.38,2.27-.19,4-.11,8.07-.13,12.1-2.24.12-4.52-.29-6.71.49L82.54,41.1a28.58,28.58,0,0,0-47.16,1.1A16.84,16.84,0,0,0,31.08,41.72Z" transform="translate(-31.05 -27.31)"/><path class="cls-3" d="M35.38,42.2a28.58,28.58,0,0,1,47.16-1.1l1.16,1.59a32.08,32.08,0,0,1,4.22,15.44c-.62,4.91-1.56,9.65-4.2,14A28.36,28.36,0,0,1,45.61,82.51c-7-3.87-11.31-9.76-13.6-17.29-.23-.76-.15-1.67-.93-2.2V52.12C32.52,48.82,33.4,45.27,35.38,42.2ZM33.05,57.4c-.83,14.25,11.32,26.78,26.16,26.82A26.61,26.61,0,1,0,59.33,31C44.26,30.93,32.45,43.48,33.05,57.4Z" transform="translate(-31.05 -27.31)"/><path class="cls-3" d="M90.41,42.2c0-4-.06-8.07.13-12.1.09-1.94-.61-2.28-2.38-2.27-19,.06-38.06,0-57.08,0-.17-.79.44-.49.74-.49q29,0,57.94,0c1.06,0,1.27.21,1.27,1.27q-.06,29,0,57.94c0,.3.3.91-.49.74l-.07-29.23Q90.42,50.13,90.41,42.2Z" transform="translate(-31.05 -27.31)"/><path class="cls-4" d="M35.38,42.2c-2,3.07-2.86,6.62-4.3,9.92V41.72A16.84,16.84,0,0,1,35.38,42.2Z" transform="translate(-31.05 -27.31)"/><path class="cls-4" d="M90.41,42.2q0,7.94,0,15.85l-2.51.08A32.08,32.08,0,0,0,83.7,42.69C85.89,41.91,88.17,42.32,90.41,42.2Z" transform="translate(-31.05 -27.31)"/><path class="cls-5" d="M33.05,57.4C32.45,43.48,44.26,30.93,59.33,31a26.61,26.61,0,1,1-.12,53.21C44.37,84.18,32.22,71.65,33.05,57.4Zm41.64-7.27-.77.47-1.5-1.27c.74-.54.55-1.1,0-1.64-.81-.82-1.61-1.64-2.43-2.45-6-5.88-17.85-4.93-23,1.68a19.39,19.39,0,0,0-4,13.83c-.9,2.08.66,3.17,1.76,4.45.21,1.31,1.19,2.17,1.92,3.13,6.08,8,19.62,7.86,25.7-.11,3.15-4.15,4.07-8.72,3.72-13.73a2.11,2.11,0,0,0-1-2.55,1.25,1.25,0,0,1,.07-.43c.57,0,1.55.62,1.55-.34C76.76,50,75.84,49.59,74.69,50.13Z" transform="translate(-31.05 -27.31)"/><path class="cls-3" d="M43,60.75a19.39,19.39,0,0,1,4-13.83c5.11-6.61,17-7.56,23-1.68.82.81,1.62,1.63,2.43,2.45.54.54.73,1.1,0,1.64-.9,0-1.6.23-1.67,1.3h-.56c-1-.7-2-1.36-3.3-.65-.89.5-.72,1.32-.56,2.12a1.93,1.93,0,0,0-.48,0c-1.78-1.32-3.44-1.53-4.89.48L59,53.25c-1.54-.1-3,0-3.86,1.57a1.92,1.92,0,0,0,.28,2.3c1.13,1.33,2.57,1.27,4.08.81l.23-.08v.64c-.84.77-.61,2-1.24,2.93-1-1.46-2.56-.75-3.86-1a1.52,1.52,0,0,1,.1-.51c.94-1.68.12-2.74-1.38-3.23s-2.92-.34-3.36,1.44a2.11,2.11,0,0,0,2.29,2.75c2.14,0,1.41,1.47,1.69,2.47l-.21.16c-.52-.38-1-1-1.58-1.1-1.44-.22-2.5-.62-2.89-2.26a1.86,1.86,0,0,0-2-1.11c-1.21.05-1.67.88-1.8,2l-.66,0A2.91,2.91,0,0,0,43,60.75Z" transform="translate(-31.05 -27.31)"/><path class="cls-3" d="M76.11,54.49c.35,5-.57,9.58-3.72,13.73-6.08,8-19.62,8.14-25.7.11-.73-1-1.71-1.82-1.92-3.13a.29.29,0,0,1,0-.4A1.48,1.48,0,0,1,46,63.52c-.38,1.22-.17,2.08,1.29,2.31s1.63-.67,1.49-2C51,66.28,53,66,53.8,63.55l.21-.16c2.07,1.52,4.15,1.55,4.67-.16.41-1.32.83-1.17,1.85-.86,2.16.65,3.88.17,4.54-2.29a1.53,1.53,0,0,0,1.18-.56c.73,0,1.65.21,2.12-.37,1.16-1.45,2.17-2.68,4.28-3.18C73.58,55.75,74.76,54.64,76.11,54.49Z" transform="translate(-31.05 -27.31)"/><path class="cls-6" d="M76.11,54.49c-1.35.15-2.53,1.26-3.46,1.48-2.11.5-3.12,1.73-4.28,3.18-.47.58-1.39.38-2.12.37l-1.51-1,0,0c-.71-.87,1-2.7-1-2.95s-2.57-1.39-2.83-3c1.45-2,3.11-1.8,4.89-.48A2.29,2.29,0,0,1,65.3,55a13.44,13.44,0,0,1,2.64.2c.83.24,1.35.46,1.35-.75,0-.69.49-1.48-.8-1.4-.88.06-1.46-.62-2.16-1-.16-.8-.33-1.62.56-2.12,1.27-.71,2.3-.05,3.3.65-.33,1.94,1,2.46,2.46,2.73,1.27.24.63-1,1-1.5l1.46.07A2.11,2.11,0,0,1,76.11,54.49Z" transform="translate(-31.05 -27.31)"/><path class="cls-6" d="M44.79,64.8a.29.29,0,0,0,0,.4c-1.1-1.28-2.66-2.37-1.76-4.45a2.91,2.91,0,0,1,1.85.33l.59.47,0,0c-.07.68.07,1.25-.93,1.64C43.11,63.68,43.73,64.41,44.79,64.8Z" transform="translate(-31.05 -27.31)"/><path class="cls-6" d="M70.75,50.63c.07-1.07.77-1.3,1.67-1.3l1.5,1.27c-.06.42-.13.84-.2,1.26A3.14,3.14,0,0,1,70.75,50.63Z" transform="translate(-31.05 -27.31)"/><path class="cls-6" d="M74.69,50.13c1.15-.54,2.07-.14,2.07,1,0,1-1,.34-1.55.34Z" transform="translate(-31.05 -27.31)"/><path class="cls-3" d="M74.69,50.13l.52,1.38a1.25,1.25,0,0,0-.07.43l-1.46-.07h0c.07-.42.14-.84.2-1.26Z" transform="translate(-31.05 -27.31)"/><path class="cls-6" d="M65.07,60.08c-.66,2.46-2.38,2.94-4.54,2.29-1-.31-1.44-.46-1.85.86-.52,1.71-2.6,1.68-4.67.16-.28-1,.45-2.5-1.69-2.47A2.11,2.11,0,0,1,50,58.17c.44-1.78,2-1.88,3.36-1.44s2.32,1.55,1.38,3.23a1.52,1.52,0,0,0-.1.51c1.3.2,2.83-.51,3.86,1,.63-.93.4-2.16,1.24-2.93,1.69-1.15,3.35-.49,5,.09l0,0A2,2,0,0,0,65.07,60.08Z" transform="translate(-31.05 -27.31)"/><path class="cls-6" d="M53.8,63.55C53,66,51,66.28,48.73,63.84c.14,1.32-.1,2.21-1.49,2S45.57,64.74,46,63.52l2.66-.27a18.47,18.47,0,0,1-3.19-1.74l0,0,.07-.5c.13-1.09.59-1.92,1.8-2a1.86,1.86,0,0,1,2,1.11c.39,1.64,1.45,2,2.89,2.26C52.79,62.54,53.28,63.17,53.8,63.55Z" transform="translate(-31.05 -27.31)"/><path class="cls-6" d="M59.76,57.85l-.23.08c-1.51.46-3,.52-4.08-.81a1.92,1.92,0,0,1-.28-2.3c.86-1.55,2.32-1.67,3.86-1.58C61.34,55.07,61.44,55.66,59.76,57.85Z" transform="translate(-31.05 -27.31)"/><path class="cls-5" d="M59.76,57.85c1.68-2.19,1.58-2.78-.73-4.61L61,52.59c.26,1.65.88,2.79,2.83,3s.27,2.08,1,2.95c-1.65-.58-3.31-1.24-5-.09Z" transform="translate(-31.05 -27.31)"/><path class="cls-5" d="M66.33,52.11c.7.36,1.28,1,2.16,1,1.29-.08.8.71.8,1.4,0,1.21-.52,1-1.35.75A13.44,13.44,0,0,0,65.3,55a2.29,2.29,0,0,0,.55-2.93A1.93,1.93,0,0,1,66.33,52.11Z" transform="translate(-31.05 -27.31)"/><path class="cls-5" d="M73.72,51.86h0c-.4.47.24,1.74-1,1.5-1.45-.27-2.79-.79-2.46-2.73h.56A3.14,3.14,0,0,0,73.72,51.86Z" transform="translate(-31.05 -27.31)"/><path class="cls-5" d="M45.52,61.05l-.07.5-.59-.47Z" transform="translate(-31.05 -27.31)"/><path class="cls-5" d="M45.42,61.51a18.47,18.47,0,0,0,3.19,1.74L46,63.52a1.48,1.48,0,0,0-1.16,1.28c-1.06-.39-1.68-1.12-.3-1.65C45.49,62.76,45.35,62.19,45.42,61.51Z" transform="translate(-31.05 -27.31)"/><path class="cls-5" d="M65.07,60.08a2,2,0,0,1-.33-1.55l1.51,1A1.53,1.53,0,0,1,65.07,60.08Z" transform="translate(-31.05 -27.31)"/></svg>