<?xml version="1.0" encoding="UTF-8"?> <svg xmlns="http://www.w3.org/2000/svg" width="2499" height="681" viewBox="0 0 2499 681" fill="none"><path fill-rule="evenodd" clip-rule="evenodd" d="M349.001 0C156.278 0 0 156.251 0 349.001C0 503.202 99.9993 634.022 238.669 680.17C256.11 683.4 262.515 672.599 262.515 663.38C262.515 659.611 262.449 651.906 262.362 641.893V641.89C262.257 629.803 262.123 614.352 262.042 598.403C164.947 619.515 144.459 557.225 144.459 557.225C128.583 516.885 105.709 506.161 105.709 506.161C74.0456 484.499 108.096 484.942 108.096 484.942C143.142 487.406 161.596 520.909 161.596 520.909C192.723 574.264 243.24 558.837 263.156 549.923C266.287 527.363 275.333 511.969 285.313 503.254C207.797 494.427 126.306 464.501 126.306 330.775C126.306 292.673 139.94 261.538 162.267 237.098C158.643 228.306 146.698 192.811 165.647 144.738C165.647 144.738 194.954 135.358 261.648 180.513C289.485 172.778 319.342 168.902 349.001 168.77C378.661 168.902 408.54 172.778 436.432 180.513C503.046 135.358 532.312 144.738 532.312 144.738C551.307 192.811 539.357 228.306 535.733 237.098C558.109 261.538 571.65 292.671 571.65 330.775C571.65 464.819 490.006 494.336 412.293 502.975C424.81 513.806 435.964 535.046 435.964 567.605C435.964 598.814 435.783 625.953 435.663 643.954V643.955L435.663 643.97C435.603 652.894 435.559 659.57 435.559 663.38C435.559 672.668 441.84 683.551 459.533 680.124C598.127 633.923 698 503.15 698 349.001C698 156.251 541.744 0 349.001 0ZM130.713 497.161C129.947 498.894 127.215 499.414 124.732 498.226C122.2 497.087 120.777 494.722 121.598 492.981C122.351 491.197 125.083 490.699 127.609 491.897C130.146 493.033 131.592 495.42 130.713 497.161ZM147.88 512.478C146.216 514.022 142.962 513.305 140.753 510.866C138.47 508.433 138.043 505.181 139.732 503.612C141.448 502.071 144.604 502.791 146.892 505.227C149.175 507.688 149.618 510.921 147.878 512.481L147.88 512.478ZM159.658 532.076C157.518 533.562 154.02 532.169 151.86 529.065C149.723 525.964 149.723 522.242 151.907 520.75C154.075 519.258 157.518 520.599 159.708 523.679C161.843 526.835 161.843 530.557 159.656 532.079L159.658 532.076ZM179.574 554.775C177.661 556.883 173.588 556.319 170.604 553.44C167.555 550.626 166.704 546.632 168.623 544.522C170.558 542.409 174.655 543.003 177.661 545.858C180.691 548.666 181.616 552.69 179.577 554.775H179.574ZM205.314 562.44C204.474 565.171 200.549 566.414 196.596 565.253C192.649 564.057 190.065 560.855 190.862 558.093C191.683 555.342 195.625 554.047 199.607 555.29C203.549 556.481 206.138 559.659 205.317 562.44H205.314ZM234.613 565.688C234.711 568.568 231.358 570.955 227.209 571.007C223.035 571.097 219.66 568.768 219.616 565.938C219.616 563.031 222.892 560.666 227.064 560.597C231.213 560.515 234.613 562.828 234.613 565.688ZM263.391 564.585C263.889 567.394 261.004 570.279 256.885 571.045C252.834 571.784 249.084 570.052 248.567 567.268C248.063 564.388 251.003 561.506 255.046 560.759C259.173 560.042 262.866 561.731 263.391 564.585ZM1038.84 353.609H1176.49C1180.04 353.609 1182.91 356.491 1182.91 360.039V569.94C1182.91 571.147 1182.71 573.777 1180.83 574.821C1180.83 574.821 1135.15 607 1059.85 607C968.917 607 861 578.996 861 391.041C861 203.1 955.257 164 1047.15 164C1126.91 164 1158.48 181.669 1163.66 185.36C1165.55 186.721 1166.12 188.726 1166.12 190.387L1150.76 255.411C1150.76 258.968 1147.06 262.952 1143.05 261.724C1141.76 261.326 1140.4 260.883 1138.94 260.41C1125.99 256.211 1105.58 249.595 1063.79 249.595C1010.09 249.595 952.883 265.497 952.883 386.331C952.883 507.14 1007.82 521.514 1047.15 521.514C1080.48 521.514 1092.54 517.401 1092.54 517.401V433.787H1038.84C1037.13 433.784 1035.5 433.103 1034.29 431.896C1033.09 430.688 1032.41 429.051 1032.41 427.344V360.042C1032.41 358.336 1033.09 356.701 1034.29 355.494C1035.5 354.288 1037.14 353.61 1038.84 353.609ZM1885.38 184.054C1885.7 184.837 1885.86 185.675 1885.85 186.519V592.097C1885.85 595.669 1883.01 598.582 1879.46 598.582H1801.77C1798.23 598.582 1795.35 595.672 1795.35 592.097L1795.56 418.615H1674.75V592.097C1674.75 595.669 1671.9 598.582 1668.36 598.582H1590.86C1587.33 598.582 1584.46 595.672 1584.46 592.097V186.519C1584.45 184.813 1585.12 183.173 1586.32 181.96C1587.52 180.747 1589.15 180.061 1590.86 180.052H1668.36C1669.2 180.055 1670.04 180.225 1670.82 180.552C1671.6 180.879 1672.31 181.357 1672.9 181.958C1673.49 182.558 1673.96 183.271 1674.28 184.053C1674.6 184.836 1674.76 185.674 1674.75 186.519V336.305H1795.56L1795.54 186.519C1795.54 185.673 1795.7 184.835 1796.02 184.052C1796.34 183.269 1796.81 182.557 1797.41 181.956C1798.01 181.356 1798.71 180.878 1799.49 180.552C1800.28 180.225 1801.11 180.055 1801.96 180.052H1879.46C1880.31 180.055 1881.15 180.225 1881.92 180.552C1882.7 180.879 1883.41 181.357 1884 181.958C1884.6 182.559 1885.07 183.271 1885.38 184.054ZM1272.76 189.279C1300.36 189.279 1322.74 211.832 1322.74 239.744C1322.74 267.622 1300.36 290.233 1272.76 290.233C1245.18 290.233 1222.79 267.622 1222.79 239.744C1222.79 211.832 1245.18 189.279 1272.76 189.279ZM1317.19 319.329V506.543V588.175C1317.19 594.772 1315.32 598.524 1307.68 598.524H1238.08C1231.72 598.524 1226.81 596.184 1226.81 588.298V320.079C1226.81 316.522 1229.98 312.865 1233.52 312.865H1310.78C1312.49 312.874 1314.12 313.56 1315.32 314.771C1316.53 315.983 1317.2 317.622 1317.19 319.329ZM2103.48 313.476H2180.39C2183.94 313.476 2186.81 316.382 2186.81 319.963L2186.84 592.217C2186.84 595.778 2183.95 598.691 2180.43 598.691L2130.77 598.909C2128.29 598.909 2126 597.146 2125.11 595.399C2124.23 593.646 2122.28 578.88 2122.28 578.88C2122.28 578.88 2081.39 606.904 2030.66 606.904C1968.82 606.904 1923.87 587.172 1923.87 506.516V319.96C1923.87 316.382 1926.76 313.476 1930.28 313.476H2008.33C2011.86 313.476 2014.73 316.382 2014.73 319.96V493.387C2014.73 520.542 2022.09 533.125 2049.82 533.125C2077.55 533.125 2097.09 518.826 2097.09 518.826V319.96C2097.09 316.382 2099.96 313.476 2103.48 313.476ZM2315.49 519.959C2315.49 519.959 2333.58 532.068 2360.26 532.88C2397.58 534.002 2409.62 520.252 2409.62 450.58C2409.62 384.513 2382.94 376.145 2355.24 378.625C2333.34 380.583 2315.49 391.525 2315.49 391.525V519.959ZM2317.2 323.859C2317.2 323.859 2346.91 304.368 2390.6 304.368C2434.31 304.368 2499 320.703 2499 445.719C2499 570.731 2458.49 606.56 2387.86 606.56C2327.7 606.56 2295.92 576.441 2295.92 576.441C2295.92 576.441 2293.99 592.96 2292.65 595.14C2291.29 597.33 2289.45 598.582 2287.02 598.582H2233.1C2229.55 598.582 2226.68 595.672 2226.68 592.097V186.523C2226.68 185.677 2226.84 184.839 2227.16 184.056C2227.48 183.273 2227.95 182.561 2228.54 181.96C2229.14 181.359 2229.85 180.881 2230.62 180.554C2231.4 180.227 2232.24 180.056 2233.09 180.052H2310.81C2314.34 180.052 2317.2 182.941 2317.2 186.523V323.859ZM1481.8 312.831H1539.94C1540.79 312.833 1541.62 313.001 1542.4 313.327C1543.18 313.653 1543.89 314.129 1544.49 314.729C1545.08 315.329 1545.55 316.04 1545.87 316.822C1546.19 317.605 1546.36 318.443 1546.35 319.288V381.767C1546.35 385.352 1543.48 388.241 1539.94 388.241H1481.8L1481.8 502.276C1481.8 519.464 1491.48 532.743 1520.04 532.743C1525.56 532.743 1530.98 532.215 1535.11 531.813C1537.66 531.565 1539.72 531.365 1541.01 531.365C1544.42 531.365 1547.44 534.254 1547.44 537.836L1547.37 592.705C1547.37 595.29 1546.04 597.674 1543.73 598.52C1539.93 599.932 1516.87 606.12 1497.6 606.12C1455.41 606.12 1392.9 597.364 1392.9 508.235V388.244H1352.28C1348.74 388.244 1345.87 385.358 1345.87 381.77V331.891C1345.87 330.497 1346.32 329.141 1347.16 328.026C1348 326.911 1349.17 326.099 1350.51 325.711C1353.2 324.933 1392.9 315.352 1392.9 315.352V235.975C1392.9 233.018 1394.55 231.66 1397.63 231.66H1476.86C1480.22 231.66 1481.72 233.113 1481.72 236.019L1481.8 312.831Z" fill="#121110"></path></svg> 